# xmcd CD database file
# Copyright (C) 1996 Ti Kan
#
# Track frame offsets:
# 	182
# 	15662
# 	33645
# 	51782
# 	68865
# 	84937
# 	105652
# 	122077
# 	140852
# 	157257
# 	175600
# 	190557
#
# Disc length: 2842 seconds
#
# Revision: 1
# Processed by: cddbd v1.4b41PL1 Copyright (c) Steve Scherf et al.
# Submitted via: DiscPlay 3.4
#
DISCID=9f0b180c
DTITLE=Exile - Justice
DYEAR=1900
DGENRE=
TTITLE0=Even Now
TTITLE1=One Too Many Times
TTITLE2=One More Reason
TTITLE3=Dreams Die Hard
TTITLE4=What You See
TTITLE5=(For You, For Me) Forever
TTITLE6=Shot In The Dark
TTITLE7=Somebody's Telling Her Lies
TTITLE8=All In Good Time
TTITLE9=Nothing At All
TTITLE10=The Invisible Man
TTITLE11=If There's Any Justice
EXTD=
EXTT0=
EXTT1=
EXTT2=
EXTT3=
EXTT4=
EXTT5=
EXTT6=
EXTT7=
EXTT8=
EXTT9=
EXTT10=
EXTT11=
PLAYORDER=
